<svg width="87" height="85" viewBox="0 0 87 85" fill="none" xmlns="http://www.w3.org/2000/svg">
<g clip-path="url(#clip0_325_5616)">
<path fill-rule="evenodd" clip-rule="evenodd" d="M49.3736 69.1069C48.8044 69.3353 48.2617 69.4533 47.7456 69.4609C46.5768 69.4609 45.6091 69.0156 44.8426 68.1251C44.0684 67.2421 43.4499 66.2602 42.9869 65.1794C42.2052 66.4886 41.598 67.2802 41.1654 67.5542C40.7252 67.8206 40.4254 67.9538 40.266 67.9538C39.7271 67.9538 39.4008 67.7521 39.287 67.3487C39.1807 66.9453 39.1124 66.5685 39.082 66.2184C39.082 65.4496 39.3628 64.9016 39.9245 64.5743C40.4785 64.247 41.135 63.2346 41.894 61.5372C41.3248 58.6524 41.0402 55.0712 41.0402 50.7935V47.3911C41.0402 43.3874 41.3172 40.1525 41.8712 37.6863C42.4253 35.2201 43.0704 33.6217 43.8066 32.891C44.5352 32.1603 45.2107 31.7949 45.833 31.7949C46.1594 31.7949 46.5654 31.8901 47.0511 32.0804C47.5445 32.2783 47.9847 32.8872 48.3717 33.9071C48.7664 34.9271 48.9637 36.2439 48.9637 37.8576V38.6682C48.9637 41.827 48.5577 45.648 47.7456 50.1313C46.9335 54.6221 45.8785 58.523 44.5807 61.8341C44.7932 62.6028 45.0133 63.2574 45.241 63.7979C45.4763 64.3383 45.7913 64.8369 46.1859 65.2935C46.573 65.7579 47.1081 65.99 47.7911 65.99C48.1099 65.99 48.4325 65.9329 48.7588 65.8187L48.7702 65.8073C48.8006 65.7921 48.8309 65.7769 48.8613 65.7617C49.4153 65.4344 50.0718 64.422 50.8308 62.7246C50.2616 59.8398 49.977 56.2586 49.977 51.9809V48.5785C49.977 44.5672 50.2578 41.3322 50.8194 38.8737C51.3734 36.4075 52.0148 34.8091 52.7434 34.0784C53.4796 33.3477 54.1588 32.9823 54.7812 32.9823C55.1075 32.9823 55.5136 33.0775 55.9993 33.2678C56.4851 33.4581 56.9253 34.0632 57.3199 35.0831C57.7146 36.1031 57.9119 37.4237 57.9119 39.045V39.8556C57.9119 43.0068 57.5059 46.8278 56.6938 51.3187C55.8741 55.8019 54.8153 59.699 53.5175 63.0101C53.7376 63.7788 53.9615 64.4334 54.1892 64.9739C54.4169 65.5143 54.7281 66.0166 55.1227 66.481C55.5174 66.9376 56.0525 67.166 56.7279 67.166C57.0543 67.166 57.3806 67.1089 57.707 66.9947C58.0334 66.8806 58.3369 66.9376 58.6178 67.166C58.9062 67.402 59.0883 67.7521 59.1642 68.2164C59.2477 68.6731 59.2097 69.1031 59.0504 69.5066C58.8834 69.91 58.6367 70.1726 58.3104 70.2944C57.7412 70.5227 57.2023 70.6369 56.6938 70.6369C55.525 70.6369 54.5535 70.1954 53.7794 69.3125C53.0052 68.4219 52.3905 67.44 51.9351 66.3668C51.1458 67.676 50.5348 68.4638 50.1022 68.7302C49.829 68.8976 49.6089 69.0156 49.4419 69.0841C49.4191 69.0917 49.3963 69.0993 49.3736 69.1069ZM55.0089 36.3847C54.7888 36.3086 54.47 36.4913 54.0526 36.9327C53.6314 37.378 53.2443 38.6682 52.8572 40.8032C52.4853 42.9421 52.2994 45.5909 52.2994 48.7497V51.9238C52.2994 52.8828 52.3184 53.8533 52.3563 54.8352C52.4018 55.8171 52.4777 56.8104 52.584 57.8152C53.3126 55.4251 53.9274 52.9019 54.4283 50.2454C54.9292 47.589 55.2631 44.9706 55.4301 42.3903L55.5098 39.9698C55.5098 38.7367 55.4529 37.888 55.339 37.4237C55.2328 36.9594 55.1227 36.6131 55.0089 36.3847ZM46.0607 35.2087C45.8406 35.125 45.5256 35.3077 45.1158 35.7568C44.6946 36.1906 44.2961 37.4808 43.9204 39.6273C43.5485 41.7585 43.3588 44.4035 43.3512 47.5623V50.7364C43.3512 51.703 43.374 52.6773 43.4195 53.6592C43.4575 54.6411 43.5296 55.6306 43.6358 56.6277C44.372 54.2453 44.9906 51.7259 45.4915 49.0694C45.9924 46.413 46.3225 43.7946 46.4819 41.2143L46.5616 38.7824C46.5692 37.5493 46.5161 36.7044 46.4022 36.2477C46.2884 35.7796 46.1859 35.4371 46.0607 35.2087Z" fill="#FFCC1B"/>
<path fill-rule="evenodd" clip-rule="evenodd" d="M48.6573 17.375C48.088 18.8935 49.1923 19.9325 50.2511 20.9372C50.9911 21.6337 51.7083 22.3073 51.2985 22.8896C50.5129 24.0085 49.9893 25.1616 49.8299 26.155C49.6705 27.2396 49.9096 28.1644 50.6496 28.7467C50.9228 28.975 51.3326 28.918 51.5489 28.6439C51.7766 28.3585 51.7197 27.9589 51.4465 27.742C51.1049 27.468 51.0139 26.977 51.1049 26.3605C51.2302 25.5498 51.6742 24.5908 52.3572 23.6317C53.4046 22.136 52.2889 21.0856 51.1391 20.001C50.3877 19.2817 49.6022 18.5396 49.864 17.8203C49.9892 17.4892 49.8185 17.1238 49.4883 16.9982C49.1582 16.8726 48.7825 17.0325 48.6573 17.375ZM57.7079 14.121C58.5959 13.3789 58.8236 12.5683 58.6301 11.849C58.5162 11.4494 58.2771 11.084 57.9356 10.7871C57.6282 10.5131 57.2412 10.2848 56.8199 10.1364C55.5107 9.65683 53.7461 9.74817 52.528 10.8899C51.1391 12.1915 51.0366 13.4931 51.7994 14.9659C52.4597 16.2447 53.803 17.6033 55.4993 19.2246C56.8085 20.4691 56.1596 21.3597 55.4083 22.4101C54.452 23.7459 53.359 25.2644 54.2698 27.7077C54.395 28.0388 54.7593 28.2101 55.0895 28.0845C55.431 27.9589 55.6018 27.5935 55.4766 27.251C54.8049 25.4585 55.6815 24.2368 56.4556 23.1636C57.5599 21.6223 58.5048 20.3093 56.3873 18.2884C54.7821 16.7584 53.507 15.4797 52.9378 14.3722C52.4711 13.4588 52.5394 12.6482 53.4046 11.8375C54.2357 11.0612 55.4538 11.0155 56.3759 11.3466C56.6605 11.4494 56.8996 11.5864 57.0818 11.7462C57.2412 11.8832 57.3436 12.0316 57.3778 12.1801C57.4461 12.4427 57.3208 12.7624 56.8768 13.1277C56.6036 13.3561 56.5695 13.7671 56.7972 14.0411C57.0248 14.3151 57.4347 14.3494 57.7079 14.121ZM46.5056 4.519C46.1527 4.48475 45.8908 4.17648 45.9136 3.82254C45.9478 3.4686 46.2552 3.19459 46.6081 3.22884C47.4278 3.29734 47.8945 3.68553 48.0767 4.22215C48.2247 4.62176 48.1791 5.08987 47.9856 5.52373C47.8034 5.91193 47.5074 6.2887 47.1204 6.56271C46.3462 7.12217 45.2078 7.3391 44.0238 6.59697C43.2952 6.15169 42.9992 5.4324 42.9081 4.7131C42.8284 4.07373 42.9081 3.44577 42.9878 3.04616C43.1244 2.33828 43.466 1.76741 43.9441 1.2993C44.5361 0.717014 45.3558 0.340239 46.221 0.146144C47.0748 -0.0365344 47.9856 -0.0479539 48.828 0.111889C49.7843 0.305985 50.6609 0.717013 51.2643 1.33355C51.3478 1.42489 51.4351 1.52765 51.5262 1.64182C52.3686 2.64655 52.9151 4.03947 52.824 5.61507C52.7443 7.15642 52.0385 8.85761 50.3649 10.4789C50.16 10.6692 49.9361 10.8671 49.6933 11.0726C48.2588 12.2828 47.0521 13.4817 46.1072 14.6691C44.5475 16.6214 43.6823 18.5167 43.5343 20.3093C43.3977 22.0675 43.9555 23.7573 45.2533 25.3215C45.7239 25.8847 46.2931 26.4366 46.961 26.977C47.2342 27.1939 47.2798 27.605 47.0634 27.879C46.8358 28.1644 46.4373 28.2101 46.1527 27.9817C45.4241 27.3956 44.7941 26.7829 44.2629 26.1435C42.7487 24.3053 42.0884 22.3073 42.2478 20.2065C42.4186 18.1514 43.3749 16.0163 45.1053 13.8584C46.0958 12.6139 47.3594 11.3466 48.8736 10.0907C49.0785 9.91562 49.2758 9.73675 49.4656 9.55407C50.8772 8.18398 51.4692 6.79106 51.5489 5.54657C51.6172 4.32491 51.1846 3.24025 50.5471 2.46387C50.4864 2.38776 50.4181 2.31164 50.3422 2.23552C49.9323 1.81308 49.2948 1.52765 48.589 1.39064C47.9173 1.25363 47.1773 1.26505 46.4942 1.41347C45.8453 1.55048 45.2533 1.8245 44.8435 2.22411C44.5475 2.50954 44.3426 2.86348 44.2515 3.28593C44.1946 3.60561 44.1263 4.09656 44.1832 4.55326C44.2287 4.93003 44.3653 5.29539 44.6955 5.5009C45.3558 5.91192 45.9592 5.80917 46.369 5.51232C46.5739 5.36389 46.7333 5.18121 46.813 4.98712C46.8813 4.85011 46.9041 4.73593 46.8699 4.65601C46.8471 4.58751 46.7333 4.54184 46.5056 4.519Z" fill="#CD5D47"/>
<path fill-rule="evenodd" clip-rule="evenodd" d="M86.92 73.2516L86.772 72.8178L86.533 72.3839L86.2256 71.9615L85.8499 71.539L85.3831 71.128L84.8708 70.7284L84.2561 70.3174L83.5844 69.9292L82.8558 69.5638L82.8102 69.541C82.6433 69.6628 82.4801 69.7807 82.3207 69.8949L82.4004 69.952L82.8558 70.2831L83.2542 70.6256L83.573 70.9682L83.9031 71.3335L84.1422 71.6875L84.3016 72.0414L84.4838 72.4182L84.5748 72.7835L84.5976 73.8568L84.1081 74.8957L83.277 75.9233L82.0816 76.8824L80.5106 77.7958L78.5866 78.6635L76.3553 79.4741L73.8393 80.2162L71.0273 80.9013L67.9763 81.5064L64.7886 82.043L61.2709 82.4769L57.6051 82.8422L53.7799 83.1163L49.8636 83.2875L45.7766 83.3674L41.6782 83.3332L37.7278 83.2076L33.8571 82.9907L30.123 82.671L26.571 82.2828L23.2468 81.7804L20.0933 81.221L17.2016 80.5816L14.5604 79.8737L12.1697 79.0973L10.1205 78.2525L8.33313 77.3391L6.92146 76.4028L5.77163 75.4095L5.12272 74.3477L4.7698 73.2516L4.75842 72.8863L4.82672 72.5209L4.88364 72.1441L5.12272 71.7902L5.2821 71.4363L5.61225 71.0937L5.91963 70.7284L6.34085 70.3973L6.73931 70.0548L7.25161 69.7351L7.75253 69.404L7.94606 69.3012C7.88535 69.2327 7.82842 69.1642 7.7753 69.0957L7.38822 69.267L6.6027 69.6323L5.90824 70.0205L5.21379 70.3973L4.70149 70.7969L4.18919 71.2079L3.68828 71.6189L3.34674 72.0414L3.01659 72.4524L2.83444 72.8749L2.66368 73.2973L2.58398 73.7426L2.59537 74.1879L2.90275 75.2268L3.64274 76.2316L4.75842 77.1906L6.32947 78.1269L8.15098 78.9832L10.3482 79.8166L12.8755 80.5816L15.6761 81.2781L18.7385 81.9289L22.0514 82.4997L25.6147 82.9792L29.3375 83.3903L33.2196 83.6985L37.3407 83.9269L41.5416 84.0639L45.8791 84.0867L50.2052 84.0182L54.3605 83.8356L58.345 83.573L62.1702 83.1962L65.836 82.7509L69.2741 82.2257L72.4732 81.6206L75.3762 80.947L78.0629 80.2048L80.3854 79.417L82.4004 78.5607L84.0625 77.6702L85.4514 76.7339L86.3167 75.7406L86.9086 74.7359L86.9997 73.6855L86.92 73.2516Z" fill="#AD0F0A"/>
<path fill-rule="evenodd" clip-rule="evenodd" d="M47.8594 77.8408V73.5593H50.7966C51.2975 73.5593 51.9465 73.5822 52.3221 74.0617C52.4929 74.2786 52.584 74.5755 52.584 74.9066C52.584 75.3176 52.436 75.5916 52.2652 75.7743C51.8782 76.2082 51.3089 76.231 50.6942 76.231H49.032V77.8408H47.8594ZM49.032 74.3129H50.364C50.8649 74.3129 51.0357 74.3129 51.2065 74.4385C51.3203 74.5298 51.4 74.6782 51.4 74.9066C51.4 75.466 50.8763 75.4774 50.5006 75.4774H49.032V74.3129ZM52.1286 77.8408H53.4264L53.8363 77.0416H56.2725L56.671 77.8408H58.003L55.7033 73.5707H54.4283L52.1286 77.8408ZM55.8741 76.2767H54.212L54.9292 74.8495C54.9519 74.7924 54.9747 74.7467 55.0089 74.6896C55.0203 74.644 55.0316 74.5869 55.0544 74.5412C55.062 74.5945 55.0734 74.6478 55.0886 74.7011C55.1113 74.7581 55.1341 74.8152 55.1683 74.8723L55.8741 76.2767ZM58.1396 76.7676C58.7544 77.8523 59.9611 77.9778 60.7353 77.9778C61.3386 77.9778 63.1601 77.9322 63.1601 76.5507C63.1601 75.6144 62.2152 75.4318 61.6688 75.3404C61.4525 75.2948 60.4734 75.1578 60.2799 75.1121C59.927 75.0436 59.6537 74.9751 59.6537 74.6896C59.6537 74.29 60.1888 74.1987 60.7125 74.1987C60.9402 74.1987 61.35 74.2215 61.6688 74.3585C61.9534 74.4841 62.0445 74.644 62.09 74.7125L63.2171 74.4613C63.126 74.3129 62.9097 74.0046 62.4315 73.7648C61.942 73.5251 61.4069 73.4337 60.7125 73.4337C59.9611 73.4337 59.0845 73.5822 58.686 74.1644C58.5722 74.3357 58.5039 74.5526 58.5039 74.7696C58.5039 75.74 59.6082 75.9227 60.0408 75.9912C60.2685 76.0369 61.2362 76.1625 61.4297 76.1967C61.6915 76.2424 62.0217 76.3109 62.0217 76.6306C62.0217 77.1444 61.1109 77.1901 60.8263 77.1901C60.1774 77.1901 59.4943 77.0302 59.2325 76.5164L58.1396 76.7676ZM63.3992 74.3471V73.5593H68.1124V74.3471H66.3592V77.8408H65.1638V74.3471H63.3992ZM67.3952 77.8408H68.693L69.1028 77.0302H71.5277L71.9376 77.8408H73.2695L70.9699 73.5593H69.6948L67.3952 77.8408ZM71.1406 76.2767H69.4785L70.1957 74.8609C70.2185 74.8038 70.2413 74.7467 70.2754 74.6896C70.2868 74.644 70.2982 74.5983 70.321 74.5412C70.3286 74.6021 70.3399 74.6592 70.3551 74.7125C70.3779 74.7696 70.4007 74.8266 70.4348 74.8837L71.1406 76.2767ZM16.2676 77.8408V73.5593H19.2048C19.7057 73.5593 20.366 73.5822 20.7417 74.0617C20.9124 74.2786 21.0035 74.5755 21.0035 74.9066C21.0035 75.3176 20.8555 75.5916 20.6847 75.7743C20.2863 76.1967 19.7171 76.231 19.1023 76.231H17.4402V77.8408H16.2676ZM17.4402 74.3014H18.7835C19.2731 74.3014 19.4552 74.3014 19.6146 74.427C19.7285 74.5298 19.8195 74.6782 19.8195 74.9066C19.8195 75.466 19.2958 75.4774 18.9088 75.4774H17.4402V74.3014ZM20.5481 77.8294H21.846L22.2444 77.0302H24.6807L25.0791 77.8294H26.4111L24.1229 73.5593H22.8364L20.5481 77.8294ZM24.305 76.2652H22.6315L23.3487 74.8381C23.3829 74.781 23.4056 74.7239 23.4284 74.6782C23.4398 74.6211 23.4512 74.5755 23.4739 74.5184C23.4815 74.5793 23.4967 74.6364 23.5195 74.6896C23.5309 74.7467 23.565 74.8038 23.5992 74.8609L24.305 76.2652ZM26.5705 76.7562C27.1853 77.8408 28.3806 77.9664 29.1662 77.9664C29.7695 77.9664 31.5797 77.9208 31.5797 76.5393C31.5797 75.603 30.6461 75.4203 30.0997 75.329C29.872 75.2833 28.9043 75.1349 28.7108 75.1007C28.3465 75.0322 28.0733 74.9637 28.0733 74.6782C28.0733 74.2786 28.6197 74.1873 29.1434 74.1873C29.3711 74.1873 29.7809 74.2101 30.0997 74.3471C30.3729 74.4727 30.4754 74.6325 30.5095 74.7011L31.6366 74.4385C31.5455 74.3014 31.3406 73.9932 30.8511 73.7534C30.3615 73.5136 29.8265 73.4223 29.1434 73.4223C28.3806 73.4223 27.5154 73.5707 27.117 74.1416C26.9917 74.3243 26.9234 74.5412 26.9234 74.7467C26.9234 75.7172 28.0277 75.9113 28.4717 75.9798C28.688 76.0141 29.6671 76.1511 29.8606 76.1853C30.1111 76.231 30.4412 76.2995 30.4412 76.6078C30.4412 77.133 29.5305 77.1786 29.2459 77.1786C28.5969 77.1786 27.9253 77.0188 27.652 76.505L26.5705 76.7562ZM31.8415 74.3357V73.5479H36.5547V74.3357H34.7901V77.8294H33.6061V74.3357H31.8415ZM35.8375 77.8294H37.1353L37.5337 77.0188H39.97L40.3685 77.8294H41.7004L39.4122 73.5479H38.1257L35.8375 77.8294ZM39.5943 76.2652H37.9208L38.638 74.8495C38.6722 74.7924 38.695 74.7353 38.7177 74.6782C38.7291 74.6326 38.7405 74.5869 38.7633 74.5298C38.7708 74.5907 38.786 74.6478 38.8088 74.7011C38.8202 74.7581 38.8543 74.8152 38.8885 74.8723L39.5943 76.2652ZM44.3986 74.7125C45.0361 74.7125 45.5484 75.2263 45.5484 75.8656C45.5484 76.4936 45.0361 77.0188 44.3986 77.0188C43.7724 77.0188 43.2487 76.4936 43.2487 75.8656C43.2487 75.2263 43.7724 74.7125 44.3986 74.7125ZM63.4903 70.1227C62.9059 70.3282 62.3632 70.431 61.8623 70.431C61.2324 70.431 60.6594 70.2483 60.1433 69.8829C59.6272 69.5176 59.2629 68.9201 59.0504 68.0904C58.8303 67.2607 58.7202 66.275 58.7202 65.1333V63.512V61.8565L58.9365 59.8014C58.9365 59.5273 59.0466 59.2876 59.2667 59.0821C59.4792 58.8766 59.741 58.7738 60.0522 58.7738C60.3406 58.7738 60.5835 58.8689 60.7808 59.0592C60.9705 59.2571 61.0654 59.5045 61.0654 59.8014L60.8491 62.0163C60.8491 62.747 60.8453 63.375 60.8377 63.9002C60.8377 64.4254 60.8149 64.9049 60.8149 65.3388C60.8149 66.1837 60.8567 66.8459 60.9402 67.3254C61.0237 67.805 61.1603 68.1056 61.35 68.2274C61.5473 68.3492 61.7295 68.4101 61.8965 68.4101C62.0634 68.4101 62.219 68.3872 62.3632 68.3416C62.5074 68.2959 62.6365 68.254 62.7503 68.216C62.8566 68.1703 62.9818 68.1475 63.126 68.1475C63.6041 68.1399 63.8925 68.2617 63.9912 68.5128C64.0899 68.764 64.1392 68.9239 64.1392 68.9924V69.1636C64.1392 69.6203 63.9229 69.94 63.4903 70.1227ZM60.3482 56.3419C59.9611 56.3419 59.631 56.2125 59.3577 55.9537C59.0769 55.6873 58.9365 55.3752 58.9365 55.0175C58.9365 54.6293 59.0693 54.3096 59.335 54.0584C59.6006 53.8072 59.9383 53.6816 60.3482 53.6816C60.758 53.6816 61.092 53.8072 61.35 54.0584C61.6157 54.3096 61.7485 54.6293 61.7485 55.0175C61.7485 55.3981 61.6157 55.7139 61.35 55.9651C61.092 56.2163 60.758 56.3419 60.3482 56.3419ZM77.9372 70.2939C77.292 70.431 76.7152 70.4995 76.2067 70.4995C75.4174 70.4995 74.7609 70.3282 74.2372 69.9857C73.7211 69.6432 73.3492 69.255 73.1215 68.8211C72.8938 68.3872 72.78 67.8506 72.78 67.2112C72.78 66.6404 72.8331 66.0124 72.9394 65.3274C73.0532 64.6423 73.1329 64.1095 73.1785 63.7289C73.224 63.3408 73.2468 63.0096 73.2468 62.7356C73.2468 62.4159 73.224 62.1305 73.1785 61.8793C73.1329 61.6281 73.0532 61.4341 72.9394 61.297C72.8331 61.16 72.7079 61.0497 72.5637 60.9659C72.4195 60.8898 72.1652 60.8289 71.8009 60.7833C70.8902 60.7833 70.116 61.0877 69.4785 61.6967C68.841 62.298 68.3097 63.0401 67.8847 63.923C67.4673 64.7984 67.1257 65.6737 66.8601 66.549V67.4396C66.8601 68.4215 66.8183 69.0913 66.7349 69.4491C66.6514 69.8068 66.4882 70.0694 66.2453 70.2369C66.0025 70.4119 65.752 70.4995 65.494 70.4995C65.3497 70.4995 65.1069 70.4538 64.7654 70.3624C64.4314 70.2635 64.2644 69.803 64.2644 68.9809C64.2644 68.7983 64.2872 68.5243 64.3327 68.1703C64.3669 67.805 64.4238 67.5424 64.458 67.3483L64.697 66.3207V64.6766V61.4455V59.8014C64.697 59.5273 64.7995 59.2876 65.0272 59.1049C65.2435 58.9222 65.5167 58.8309 65.8355 58.8309C66.1315 58.8309 66.3744 58.9336 66.5641 59.1392C66.7614 59.3447 66.8601 59.5844 66.8601 59.8584L66.7576 61.4341V61.7081C67.3572 60.7947 68.0517 60.0754 68.841 59.5502C69.6379 59.025 70.5183 58.7624 71.4822 58.7624C71.725 58.7624 72.1577 58.7966 72.78 58.8651C73.4024 58.9336 73.9336 59.2381 74.3738 59.7785C74.8064 60.3113 75.0873 60.7985 75.2163 61.24C75.3529 61.689 75.4212 62.1876 75.4212 62.7356C75.4212 63.101 75.3946 63.4663 75.3415 63.8317C75.296 64.1894 75.2239 64.6499 75.1252 65.2132C75.0265 65.7689 74.962 66.1837 74.9317 66.4577C74.8937 66.7317 74.8861 66.9486 74.9089 67.1085C74.9089 67.3597 74.9582 67.5918 75.0569 67.805C75.148 68.0257 75.2732 68.1931 75.4326 68.3073C75.592 68.4215 75.888 68.4786 76.3206 68.4786C76.6773 68.4786 77.0606 68.4329 77.4704 68.3416C78.1459 68.1817 78.5671 68.4329 78.7341 69.0951C78.7872 69.3006 78.7568 69.5328 78.643 69.7916C78.5367 70.058 78.3015 70.2254 77.9372 70.2939ZM83.4472 70.4652C82.8704 70.6707 82.3278 70.7735 81.8193 70.7735C81.1969 70.7735 80.6277 70.5908 80.1116 70.2254C79.5955 69.8601 79.2274 69.2626 79.0073 68.4329C78.7948 67.6032 78.6847 66.6175 78.6772 65.4758V63.8545V62.1876L78.9048 60.1439C78.9048 59.8699 79.0111 59.6301 79.2236 59.4246C79.4437 59.2191 79.7093 59.1163 80.0205 59.1163C80.3089 59.1163 80.548 59.2115 80.7377 59.4018C80.9351 59.5997 81.0337 59.847 81.0337 60.1439L80.8174 62.3589C80.8098 63.0896 80.806 63.7175 80.806 64.2427C80.7947 64.7679 80.7833 65.2475 80.7719 65.6813C80.7719 66.5262 80.8136 67.1884 80.8971 67.6679C80.9882 68.1399 81.1286 68.4405 81.3183 68.5699C81.5081 68.6917 81.6902 68.7526 81.8648 68.7526C82.0318 68.7526 82.1874 68.7298 82.3316 68.6841C82.4758 68.6384 82.601 68.5928 82.7072 68.5471C82.8135 68.5014 82.9387 68.4786 83.0829 68.4786C83.5687 68.4786 83.8571 68.6042 83.9482 68.8554C84.0468 69.1065 84.0962 69.2664 84.0962 69.3349V69.5061C84.0962 69.9628 83.8798 70.2825 83.4472 70.4652ZM80.3051 56.6844C79.9181 56.6844 79.5879 56.555 79.3147 56.2962C79.0415 56.0298 78.9048 55.7139 78.9048 55.3486C78.9048 54.968 79.0339 54.6521 79.2919 54.4009C79.5575 54.1498 79.8953 54.0242 80.3051 54.0242C80.715 54.0242 81.0527 54.1498 81.3183 54.4009C81.584 54.6521 81.7168 54.968 81.7168 55.3486C81.7168 55.7368 81.584 56.0565 81.3183 56.3076C81.0527 56.5588 80.715 56.6844 80.3051 56.6844Z" fill="#AD0F0A"/>
<path fill-rule="evenodd" clip-rule="evenodd" d="M34.1534 69.7116C30.6356 69.7116 27.1861 68.1931 23.8049 67.4167C22.8638 68.2007 21.8885 68.802 20.8791 69.2206C19.8697 69.6393 19.0386 69.9209 18.3859 70.0655C17.7332 70.2102 17.1602 70.2825 16.6668 70.2825C15.3614 70.2825 14.4317 69.9475 13.8776 69.2777C13.3236 68.6155 13.0466 68.0066 13.0466 67.4509C13.0466 67.0323 13.1718 66.6137 13.4223 66.195C13.6727 65.7726 14.1736 65.3616 14.925 64.9505C15.6764 64.5509 16.8148 64.3454 18.3404 64.3454C19.1487 64.3454 19.8545 64.3797 20.4465 64.4596C21.0499 64.5395 21.9037 64.6765 23.008 64.8592C23.452 64.2998 23.8049 63.7517 24.0554 63.2037C24.3058 62.6556 24.431 62.0125 24.431 61.2741V60.8859C24.431 59.0439 23.8922 57.7157 22.8144 56.9013C21.7291 56.0945 20.7728 55.5464 19.9456 55.2572C19.1107 54.9679 18.2645 54.77 17.4068 54.6635C17.0198 54.7929 16.6479 54.9109 16.2912 55.0174H15.7447C15.5246 55.0174 15.3462 55.006 15.2096 54.9832C15.073 54.9527 14.8719 54.8347 14.6063 54.6292C14.3406 54.4237 14.2078 54.1002 14.2078 53.6587C14.2078 53.1716 14.3899 52.8367 14.7543 52.654C15.111 52.4713 15.4639 52.3686 15.813 52.3457C16.1545 52.3153 16.6175 52.3001 17.2019 52.3001C18.7274 51.7216 19.6837 50.8577 20.0708 49.7083L20.196 48.7949C20.196 48.0338 19.8962 47.3678 19.2966 46.7969C18.7047 46.2184 17.7711 45.9292 16.4961 45.9292C15.8054 45.9292 15.1679 46.0129 14.5835 46.1804C14.0067 46.3554 13.5437 46.5191 13.1946 46.6713C12.8455 46.8311 12.4774 47.0138 12.0903 47.2193L12.3407 54.6178C12.3407 59.238 11.9385 62.8878 11.134 65.5671C10.3295 68.2387 9.32766 69.6659 8.1285 69.8486C6.92175 70.0389 6.21971 70.134 6.02238 70.134C4.27676 70.134 2.83852 69.3653 1.70767 67.8277C0.569223 66.2902 0 64.2883 0 61.8222C0 58.9907 0.618555 56.5245 1.85567 54.4237C3.08519 52.3305 4.31091 50.6255 5.53284 49.3087C6.74719 47.9995 8.09055 46.873 9.56294 45.9292V44.2394C9.55535 43.9502 9.66161 43.6876 9.88171 43.4516C10.0942 43.2156 10.3599 43.0977 10.6786 43.0977C11.0315 43.0977 11.3275 43.2347 11.5894 43.5087C11.8398 43.7941 11.9651 44.1252 11.9651 44.5248V45.0158C12.6026 44.658 13.297 44.3307 14.0484 44.0339C14.7922 43.7446 15.6498 43.6 16.6213 43.6C18.5035 43.6 19.9835 44.1214 21.0612 45.1642C22.1466 46.1994 22.6892 47.4096 22.6892 48.7949C22.6892 49.3201 22.5716 49.9519 22.3363 50.6902C22.101 51.4209 21.5128 52.1935 20.5717 53.0079C21.4217 53.3276 22.6778 53.986 24.34 54.9832C26.0135 55.9765 26.8445 57.9288 26.8445 60.8403V61.434C26.8445 62.218 26.7383 62.9259 26.5258 63.5576C26.3209 64.1894 26.0097 64.8173 25.5923 65.4415L28.1196 66.2635C27.983 65.8068 27.9109 65.3083 27.9033 64.7679C27.9033 62.9259 28.4118 61.3807 29.4288 60.1324C30.5293 58.7623 31.9979 58.0773 33.8346 58.0773C35.1666 58.0773 36.2481 58.2828 37.1019 58.6824C38.1341 59.1695 38.6502 59.9231 38.6502 60.943C38.6502 61.6509 38.1948 62.2941 37.2841 62.8726C36.8856 63.1352 36.0318 63.5348 34.734 64.0714L30.1347 66.0009C30.5824 66.587 31.1441 67.0285 31.8195 67.3254C32.4874 67.6222 33.2654 67.7706 34.1534 67.7706C34.7074 67.7783 35.3601 67.6869 36.1115 67.4966C37.0564 67.2683 37.6712 66.96 37.9444 66.5832C38.2176 66.2026 38.5098 66.0124 38.821 66.0124C39.1018 66.0124 39.3523 66.1037 39.5724 66.2864C39.7925 66.4767 39.9025 66.6974 39.9025 66.9486C39.9025 67.7364 39.1853 68.41 37.7508 68.9809C36.5213 69.4604 35.3222 69.704 34.1534 69.7116ZM9.72232 48.8749C8.6408 49.7083 7.67312 50.6217 6.79652 51.6036C5.91992 52.5855 5.14577 53.6702 4.45132 54.869C3.75687 56.0678 3.24457 57.2552 2.93719 58.397C2.61842 59.5463 2.45904 60.6842 2.45904 61.8108C2.45904 63.7746 2.88786 65.354 3.74548 66.549C4.38301 67.3634 5.13059 67.7706 5.98822 67.7706C6.20832 67.7706 6.90657 67.6717 8.08296 67.4738C9.25556 67.2797 9.84755 62.9297 9.84755 54.4351L9.72232 48.8749ZM18.2379 66.6632C17.4106 66.6632 16.7807 66.7355 16.3481 66.8801C15.9231 67.0247 15.6536 67.1884 15.5398 67.371C15.5398 67.4776 15.6043 67.6032 15.7333 67.7478C15.8547 67.8924 16.1925 67.9647 16.7465 67.9647C16.9666 67.9647 17.3195 67.9115 17.8053 67.8049C18.291 67.7059 18.7047 67.5956 19.0462 67.4738C19.3953 67.3596 19.8621 67.1579 20.4465 66.8687L18.2379 66.6632ZM33.8232 59.9954C32.8441 59.9954 32.0321 60.3303 31.3869 61.0001C30.7342 61.6699 30.2485 62.6785 29.9297 64.0257L33.6183 62.473C35.0755 61.8488 36.1115 61.3046 36.7262 60.8403C36.0356 60.277 35.0679 59.9954 33.8232 59.9954Z" fill="#AD0F0A"/>
</g>
<defs>
<clipPath id="clip0_325_5616">
<rect width="87" height="85" fill="white"/>
</clipPath>
</defs>
</svg>
