<svg width="32" height="32" viewBox="0 0 32 32" fill="none" xmlns="http://www.w3.org/2000/svg">
<path d="M2.41141 2.09355C2.18461 2.20959 2 2.52078 2 2.77396C2 3.03768 2.18461 3.33833 2.42196 3.45964C2.59074 3.54403 2.73315 3.56513 3.16039 3.56513H3.68783V4.45652V5.34791L3.11292 5.369C2.49053 5.38483 2.36921 5.4323 2.13714 5.74877C1.98418 5.9492 1.98418 6.4028 2.13714 6.60851C2.32702 6.86696 2.54327 6.9408 3.14984 6.9408H3.68783V7.86383V8.78687H3.11292C2.60657 8.78687 2.52217 8.80269 2.36394 8.90818C1.86814 9.24047 1.89978 9.92616 2.42723 10.2374C2.56437 10.3165 2.72788 10.3481 3.14456 10.3587L3.68783 10.3798V15.1215V19.8633L3.5085 20.2219C3.15511 20.934 2.93358 21.7726 2.86502 22.7062C2.82809 23.1862 2.82809 23.1862 2.68568 23.1862C2.49053 23.1862 2.2057 23.3866 2.08967 23.6082C1.97363 23.835 1.99473 24.1936 2.14241 24.3888C2.34284 24.6578 2.4958 24.7316 2.93358 24.758L3.34499 24.7791L5.24381 26.6674C7.24811 28.6611 7.34305 28.7402 7.99709 28.909C8.45069 29.0303 22.5547 29.0303 23.0083 28.909C23.6623 28.7402 23.7572 28.6611 25.7615 26.6674L27.6604 24.7791L28.0718 24.758C28.5095 24.7316 28.6625 24.6578 28.8629 24.3888C29.0106 24.1936 29.0317 23.835 28.9157 23.6082C28.7996 23.3866 28.5148 23.1862 28.3197 23.1862H28.1773L28.1456 22.1946C28.0876 20.3855 27.7078 18.993 26.8797 17.5847C24.8438 14.1299 20.8352 12.3735 16.9004 13.2227C16.162 13.3809 15.5027 13.6183 14.7221 14.0139C13.8834 14.4358 13.2505 14.8736 12.5648 15.5118L12.0743 15.9654V13.1014L12.0795 10.2374L12.5068 10.0316C12.876 9.85759 13.0342 9.73627 13.5511 9.22993L14.1682 8.62863H20.5504C26.674 8.62863 26.9536 8.62336 27.2595 8.52842C28.077 8.27524 28.7047 7.60538 28.9262 6.74564C29.2743 5.40593 28.3513 3.97654 26.9799 3.72864C26.7637 3.68644 24.6697 3.67062 20.3868 3.67062H14.1102L13.5036 3.06933C13.0659 2.6421 12.7969 2.42584 12.5648 2.30453C11.9108 1.97751 12.0162 1.98279 7.08988 1.98806C2.72788 1.98806 2.60129 1.98806 2.41141 2.09355ZM7.0635 10.211V16.8516L6.53078 17.1258C6.24068 17.2735 5.8662 17.495 5.70269 17.6164C5.53918 17.7377 5.37039 17.8537 5.33875 17.8801C5.286 17.9117 5.27018 16.4665 5.27018 10.7437V3.56513H6.16684H7.0635V10.211ZM10.4919 9.97363V16.3821H9.89062C9.56361 16.3821 9.14692 16.3979 8.96759 16.4138L8.64585 16.4507V10.0053V3.56513H9.56888H10.4919V9.97363ZM13.5142 5.20022C13.6144 5.23714 15.7453 5.25297 20.1337 5.25297C24.348 5.25297 26.674 5.27406 26.8006 5.30571C27.0432 5.37428 27.3544 5.71185 27.4019 5.95975C27.4757 6.36061 27.2859 6.76674 26.9483 6.94607C26.7742 7.04101 26.4894 7.04629 20.3025 7.04629C16.6209 7.04629 13.7515 7.06739 13.6355 7.09903C13.4667 7.13596 13.3032 7.27309 12.7916 7.77944C12.4382 8.13283 12.1323 8.41765 12.1112 8.41765C12.0901 8.41765 12.0743 7.38913 12.0743 6.13908V3.85523L12.723 4.49871C13.0764 4.8521 13.4351 5.16857 13.5142 5.20022ZM20.4396 14.7418C23.3722 15.3852 25.6139 17.5372 26.3417 20.4118C26.5 21.0342 26.5791 21.7463 26.5791 22.5533V23.1862H25.693H24.8016L24.7699 22.3792C24.7383 21.4931 24.6381 20.8918 24.4324 20.3222C23.003 16.3083 17.9237 15.0846 14.8539 18.0119C13.6091 19.1987 13.0237 20.6334 13.0237 22.4847V23.1862H12.1217H11.2198L11.2462 22.1419C11.2831 20.7388 11.4677 19.9582 12.0268 18.8348C13.0606 16.7566 15.0543 15.2217 17.3276 14.7523C18.0555 14.5993 18.1135 14.5941 19.0893 14.6152C19.7064 14.631 20.0967 14.6679 20.4396 14.7418ZM10.6502 17.9803C10.6502 17.9908 10.5552 18.2229 10.4339 18.4972C10.3179 18.7715 10.1649 19.1565 10.0963 19.3622L9.98029 19.7314L9.51086 19.7736C8.91485 19.8264 8.50344 19.9318 8.0973 20.127C7.09515 20.6228 6.40947 21.5986 6.26178 22.7431L6.20376 23.1862H5.3071H4.41044L4.44736 22.7484C4.55812 21.2874 5.29655 19.9213 6.44111 19.0352C7.07933 18.5499 8.05511 18.1332 8.83045 18.0225C9.1311 17.9803 10.6502 17.9434 10.6502 17.9803ZM19.9332 18.1016C21.1622 18.4128 22.2487 19.3095 22.7815 20.4593C23.0557 21.0448 23.1559 21.5458 23.1665 22.395L23.177 23.1598H22.2804H21.3837L21.3573 22.395C21.331 21.6461 21.3257 21.6197 21.1358 21.2188C20.5451 19.9899 19.0946 19.4519 17.8604 20.011C17.3857 20.2272 16.9162 20.6808 16.6894 21.1503C16.4626 21.6091 16.3993 21.9362 16.3993 22.6377V23.1862H15.4974H14.5955L14.6218 22.3265C14.6535 21.3612 14.7168 21.0659 15.028 20.4171C15.4025 19.6365 15.9774 19.0088 16.7369 18.5499C17.085 18.3442 17.7971 18.0858 18.2296 18.0172C18.6463 17.9539 19.5166 17.9961 19.9332 18.1016ZM9.63745 22.2473L9.62163 23.1598H8.72496H7.8283L7.83885 22.9489C7.86522 22.5902 8.00764 22.2526 8.26081 21.9731C8.5931 21.5986 9.02561 21.3982 9.58471 21.3454C9.63745 21.3401 9.648 21.5406 9.63745 22.2473ZM19.0999 21.3929C19.2106 21.4245 19.3689 21.5089 19.4585 21.588C19.7275 21.8148 19.775 21.9572 19.775 22.606V23.1862H18.8783H17.9817V22.6429C17.987 21.8834 18.1346 21.5828 18.5988 21.414C18.8467 21.3296 18.8572 21.3296 19.0999 21.3929ZM24.2319 25.987C23.4671 26.757 22.9397 27.2423 22.8078 27.3056C22.6074 27.4005 22.3279 27.4058 15.5027 27.4058C8.67749 27.4058 8.39795 27.4005 8.19752 27.3056C8.06565 27.2423 7.53821 26.757 6.77341 25.987L5.56028 24.7685H15.5027H25.4451L24.2319 25.987Z" fill="currentColor"/>
</svg>
